Coordinates
version=1
nRows=6
nColumns=63
inDegrees=yes

Units are S.I. units (second, meters, Newtons, ...)
If the header above contains a line with 'inDegrees', this indicates whether rotational values are in degrees (yes) or radians (no).

endheader
time	pelvis_tilt	pelvis_list	pelvis_rotation	pelvis_tx	pelvis_ty	pelvis_tz	hip_flexion_r	hip_adduction_r	hip_rotation_r	knee_angle_r	knee_angle_r_beta	ankle_angle_r	subtalar_angle_r	mtp_angle_r	hip_flexion_l	hip_adduction_l	hip_rotation_l	knee_angle_l	knee_angle_l_beta	ankle_angle_l	subtalar_angle_l	mtp_angle_l	L5_S1_Flex_Ext	L5_S1_Lat_Bending	L5_S1_axial_rotation	L4_L5_Flex_Ext	L4_L5_Lat_Bending	L4_L5_axial_rotation	L3_L4_Flex_Ext	L3_L4_Lat_Bending	L3_L4_axial_rotation	L2_L3_Flex_Ext	L2_L3_Lat_Bending	L2_L3_axial_rotation	L1_L2_Flex_Ext	L1_L2_Lat_Bending	L1_L2_axial_rotation	L1_T12_Flex_Ext	L1_T12_Lat_Bending	L1_T12_axial_rotation	Abs_r3	Abs_r2	Abs_r1	Abs_t1	Abs_t2	neck_flexion	neck_bending	neck_rotation	arm_flex_r	arm_add_r	arm_rot_r	elbow_flex_r	pro_sup_r	wrist_flex_r	wrist_dev_r	arm_flex_l	arm_add_l	arm_rot_l	elbow_flex_l	pro_sup_l	wrist_flex_l	wrist_dev_l
      5.08333333	     -1.39944193	      4.65189497	     83.72737578	      0.21943279	      0.76789769	      0.79839959	     -1.88915418	     -2.15138168	    -13.51830914	     12.16537832	      0.21232591	     35.01699722	     12.16296144	      0.00000000	     -3.24026365	      1.06279271	     28.04267746	      1.95265036	      0.03408018	     21.85464438	    -16.29822869	      0.00000000	     -0.24498895	     -1.65044500	     -1.45754888	     -0.45496897	     -2.19509184	     -1.54864569	     -0.40249234	     -4.01289196	     -1.54864569	     -0.27999787	     -4.01289196	     -1.27535527	     -0.22749674	     -3.36558744	     -1.18425847	     -0.13998668	     -2.55653930	     -1.09316166	     -1.74993155	    -18.67016388	     -8.10644961	      0.00000000	      0.00000000	     24.78115657	      5.59289231	    -43.48558328	     60.93950719	    -44.60579422	    -13.74261294	    135.72671957	     88.89528736	      6.89932322	      9.12925635	      7.69065234	    -18.56104608	    161.85952370	      0.72429306	     27.33142443	    -11.68474442	      1.25020446
      5.10000000	     -1.50521789	      4.60285631	     82.82332581	      0.22061446	      0.76699400	      0.80009379	     -1.14978988	     -2.38738204	    -12.66368100	     12.98526211	      0.22663558	     35.87791265	     12.08608742	      0.00000000	     -3.11561688	      1.20929415	     27.29273575	      1.82844175	      0.03191233	     21.99950748	    -16.45024072	      0.00000000	     -0.24334462	     -1.64934559	     -1.42327790	     -0.45191530	     -2.19362963	     -1.51223277	     -0.39979088	     -4.01021887	     -1.51223277	     -0.27811857	     -4.01021887	     -1.24536816	     -0.22596982	     -3.36334553	     -1.15641329	     -0.13904712	     -2.55483632	     -1.06745843	     -1.73818630	    -18.65772717	     -7.91584470	      0.00000000	      0.00000000	     25.21986655	      4.86409675	    -43.23287045	     63.46436928	    -43.77452575	    -13.18115183	    136.80170064	     88.73344225	     13.22969104	     15.40066016	      7.59486983	    -18.67026373	    160.61478500	      0.76274214	     26.95139966	    -11.29753312	      1.21004042
      5.11666667	     -1.47949652	      4.40258174	     82.42232463	      0.22100147	      0.76590740	      0.80139950	     -0.41733730	     -2.41413961	    -12.36397657	     13.60270326	      0.23741196	     36.57784982	     12.00105641	      0.00000000	     -2.83135557	      1.18749299	     26.96409850	      1.75520303	      0.03063407	     22.20441227	    -16.53788646	      0.00000000	     -0.22925272	     -1.64572121	     -1.43637082	     -0.42574523	     -2.18880921	     -1.52614400	     -0.37663929	     -4.00140655	     -1.52614400	     -0.26201293	     -4.00140655	     -1.25682447	     -0.21288408	     -3.35595469	     -1.16705129	     -0.13099500	     -2.54922216	     -1.07727812	     -1.63752925	    -18.61672749	     -7.98866360	      0.00000000	      0.00000000	     26.05632493	      4.86387173	    -43.22868635	     64.50176063	    -43.89920230	    -12.32889564	    137.11411384	     88.79250056	     12.93778801	     15.52863474	      7.49609244	    -18.76696628	    159.68265889	      0.81272116	     26.12812199	    -10.85283084	      1.23043212
      5.13333333	     -1.36715682	      4.31217438	     82.34682831	      0.22098078	      0.76505189	      0.80227081	     -0.07513239	     -2.29026087	    -12.20631529	     13.76305835	      0.24021068	     37.02353176	     11.94736744	      0.00000000	     -2.70595165	      1.07732327	     26.82967449	      1.66157341	      0.02899993	     22.32579605	    -16.58623848	      0.00000000	     -0.22750211	     -1.64457569	     -1.48436852	     -0.42249417	     -2.18728567	     -1.57714155	     -0.37376321	     -3.99862133	     -1.57714155	     -0.26001216	     -3.99862133	     -1.29882246	     -0.21125846	     -3.35361875	     -1.20604942	     -0.12999471	     -2.54744774	     -1.11327639	     -1.62502481	    -18.60376913	     -8.25561240	      0.00000000	      0.00000000	     26.51104070	      4.98267660	    -43.34357279	     64.90900737	    -44.02492555	    -12.41096684	    137.22446070	     88.87000882	     12.61832053	     15.46598969	      7.36925488	    -18.88662404	    159.36177926	      0.85802399	     25.83209208	    -10.72666326	      1.23541089
      5.15000000	     -0.99831335	      3.98698634	     82.27121128	      0.22031338	      0.76373689	      0.80374386	      0.98139082	     -1.99130585	    -12.03997838	     14.91501299	      0.26031608	     37.16205123	     11.42410347	      0.00000000	     -2.27919387	      0.69950757	     26.76533078	      1.66931151	      0.02913498	     22.39257180	    -16.50357204	      0.00000000	     -0.22220016	     -1.60548627	     -1.56484788	     -0.41264793	     -2.13529674	     -1.66265088	     -0.36505265	     -3.90357931	     -1.66265088	     -0.25395257	     -3.90357931	     -1.36924190	     -0.20633507	     -3.27390760	     -1.27143891	     -0.12696517	     -2.48689823	     -1.17363591	     -1.58715356	    -18.16158177	     -8.70321448	      0.00000000	      0.00000000	     27.48114671	      5.30485236	    -43.48905408	     65.38396222	    -44.13917420	    -12.64652270	    137.02428928	     88.98277769	     11.08150189	     15.07844277	      7.20101996	    -18.85372784	    158.25161226	      0.80874140	     24.84389862	    -10.45811451	      1.27513608
      5.16666667	     -0.77455020	      3.63034261	     81.99840282	      0.22004914	      0.76234238	      0.80497840	      1.97923405	     -1.30546144	     -8.15227473	     15.62194852	      0.27265444	     36.41000216	      6.20444012	      0.00000000	     -1.79071048	      0.48859119	     26.56205943	      1.73284354	      0.03024383	     22.78652434	    -16.35225568	      0.00000000	     -0.18633090	     -1.58473675	     -1.60491127	     -0.34603511	     -2.10769988	     -1.70521822	     -0.30612303	     -3.85312893	     -1.70521822	     -0.21295758	     -3.85312893	     -1.40429736	     -0.17302687	     -3.23159518	     -1.30399040	     -0.10646948	     -2.45475723	     -1.20368345	     -1.33094297	    -17.92685906	     -8.92603499	      0.00000000	      0.00000000	     27.48296458	      5.44139113	    -43.37701418	     64.73692878	    -45.69384806	     -9.45755927	    135.38506320	     89.11877739	     -3.69226738	      5.64338100	      6.92421881	    -18.93161879	    156.12343123	      0.84885693	     23.57015439	    -10.40635744	      0.96126673
